<?xml version="1.0" ?><!DOCTYPE svg  PUBLIC '-//W3C//DTD SVG 1.1//EN'  'http://www.w3.org/Graphics/SVG/1.1/DTD/svg11.dtd'><svg enable-background="new 0 0 24 24" height="24px" id="Layer_1" version="1.1" viewBox="0 0 24 24" width="24px" xml:space="preserve" xmlns="http://www.w3.org/2000/svg" xmlns:xlink="http://www.w3.org/1999/xlink"><path d="M22,5H1C0.4,5,0,5.4,0,6v17c0,0.6,0.4,1,1,1h21c0.6,0,1-0.4,1-1V6C23,5.4,22.6,5,22,5z M2,12.1c1.1,0.2,2,1.2,2,2.4  s-0.9,2.2-2,2.4V12.1z M2,22v-4.1c1.7-0.2,3-1.7,3-3.4s-1.3-3.2-3-3.4V7h9v4.1c-1.7,0.2-3,1.7-3,3.4s1.3,3.2,3,3.4V22H2z M11,16.9  c-1.1-0.2-2-1.2-2-2.4s0.9-2.2,2-2.4V16.9z M12,12.1c1.1,0.2,2,1.2,2,2.4s-0.9,2.2-2,2.4V12.1z M21,16.9c-1.1-0.2-2-1.2-2-2.4  s0.9-2.2,2-2.4V16.9z M21,11.1c-1.7,0.2-3,1.7-3,3.4s1.3,3.2,3,3.4V22h-9v-4.1c1.7-0.2,3-1.7,3-3.4s-1.3-3.2-3-3.4V7h9V11.1z"/></svg>