<svg xmlns="http://www.w3.org/2000/svg" xmlns:xlink="http://www.w3.org/1999/xlink" version="1.1" x="0px" y="0px" viewBox="-0.5 16.1 100 81.625" enable-background="new -0.5 16.1 100 65.3" xml:space="preserve"><path d="M20,23.7c-0.5,0-0.8,0.4-0.8,0.7v31c0,0.1-0.1,0.3-0.2,0.4l-3.3,1.6c-0.3,0.1-0.6,0-0.6-0.4V20.3c0-0.5-0.5-0.9-1-0.9  s-1,0.4-1,0.9v38.3v1.1c0,0.3,0.4,0.5,0.6,0.4l1.9-0.9c0.3-0.1,0.6,0,0.6,0.4v8.4c0,0.5,0.5,0.8,0.9,0.8c0.6,0,0.9-0.4,0.9-0.8v-9.8  c0-0.1,0.1-0.3,0.2-0.4l2.4-1.1c0.2-0.1,0.2-0.2,0.2-0.4v-1.5V24.4C20.9,24.1,20.4,23.7,20,23.7z"/><path d="M85.3,19.4c-0.6,0-1,0.4-1,0.9v35.4l-3.9-1.8c-0.2-0.1-0.4-0.3-0.4-0.5v-29c0-0.4-0.4-0.7-0.8-0.7c-0.5,0-0.8,0.4-0.8,0.7  v29.8c0,0.2,0.1,0.4,0.4,0.5l2.2,1c0.2,0.1,0.4,0.3,0.4,0.5v11.6c0,0.5,0.5,0.8,0.9,0.8c0.6,0,0.9-0.4,0.9-0.8v-11l2.2,1  c0.5,0.2,1-0.1,1-0.5v-37C86.4,19.8,85.9,19.4,85.3,19.4z"/><polygon points="49,60.3 45.3,60.3 43.2,78.1 49,78.1 "/><polygon points="44.3,60.3 40.9,60.3 37.5,78.1 42.2,78.1 "/><polygon points="40,60.3 36.3,60.3 30.8,78.1 36.5,78.1 "/><polygon points="35.4,60.3 31.9,60.3 23,78.1 29.8,78.1 "/><polygon points="14.7,78.1 22,78.1 30.9,60.3 27.3,60.3 "/><polygon points="53.5,60.3 50,60.3 50,78.1 55.7,78.1 "/><polygon points="67.1,60.3 63.4,60.3 69,78.1 76,78.1 "/><polygon points="71.6,60.3 68.1,60.3 77,78.1 84.2,78.1 "/><polygon points="58,60.3 54.5,60.3 56.6,78.1 61.4,78.1 "/><polygon points="62.5,60.3 59,60.3 62.4,78.1 68.1,78.1 "/><g><path d="M21.8,60.3L19,63.2v4.6c0,0.9-0.8,1.7-1.8,1.7c-1,0-1.8-0.7-1.8-1.7V67L4.5,78.1h9.1l12.7-17.8   C26.2,60.3,21.8,60.3,21.8,60.3z"/></g><g><path d="M84.1,67.4v0.5c0,0.9-0.8,1.7-1.8,1.7s-1.8-0.7-1.8-1.7v-4.3l-3.2-3.3h-4.5L85.3,78h9.1L84.1,67.4z"/></g><text x="-0.5" y="96.4" fill="#000000" font-size="5px" font-weight="bold" font-family="'Helvetica Neue', Helvetica, Arial-Unicode, Arial, Sans-serif">Created by Claire Jones</text><text x="-0.5" y="101.4" fill="#000000" font-size="5px" font-weight="bold" font-family="'Helvetica Neue', Helvetica, Arial-Unicode, Arial, Sans-serif">from the Noun Project</text></svg>