<?xml version="1.0" encoding="iso-8859-1"?>
<!-- Generator: Adobe Illustrator 16.0.0, SVG Export Plug-In . SVG Version: 6.00 Build 0)  -->
<!DOCTYPE svg PUBLIC "-//W3C//DTD SVG 1.1//EN" "http://www.w3.org/Graphics/SVG/1.1/DTD/svg11.dtd">
<svg version="1.1" id="Capa_1" xmlns="http://www.w3.org/2000/svg" xmlns:xlink="http://www.w3.org/1999/xlink" x="0px" y="0px"
	 width="941.851px" height="941.851px" viewBox="0 0 941.851 941.851" style="enable-background:new 0 0 941.851 941.851;"
	 xml:space="preserve">
<g>
	<g>
		<path d="M30.35,910.31c1,7.6,6.9,14.399,14.6,14.6c35.6,0.9,71.9-2.7,105.7-14.399c24.3-8.4,47.3-21.9,63.8-41.7
			c28.9-34.8,33-82.101,38.2-125.3c0.5-4.101,3.8-7.4,7.9-7.801c4.3-0.5,8.5-0.899,12.7-1.399c4.601-0.5,8.9,2.6,9.7,7.2
			c1.8,10.1,4.4,20.399,7.8,30.899c33.601,101.101,146.9,123.2,239.601,99.5c38.8-9.899,70.199-27.3,102-51.3
			c27.199-20.5,55.3-41.8,88.399-51.5c9.7-2.9,18.7-4.3,26.8-4.3c10.4,0,16.301,3.5,19.601,7.399c5.8,6.7,14.5,10.4,23.399,10.4
			h31.801c9.5,0,18.5-4.4,24.3-11.9c63-82.199,95.2-185.899,95.2-292.5c0-254.399-195.101-461.399-434.9-461.399
			c-106.2,0-207.8,42.3-284.7,115c-47.9,45.3-88.2,100.6-115.1,160.8c-23.9,53.6-50.7,131.4,11.2,169.4
			c42.4,26,92.9,27.8,132.1,60.5c16,13.3,25.6,29.899,33.2,49.1c2.2,5.7-1.101,12-7.1,13.3l-262,66.2c-9.5,2.4-15.6,11.4-14.4,21.1
			C0.05,672.209,23.75,859.01,30.35,910.31z M555.95,555.01c31.9,0,57.7,25.8,57.7,57.699c0,31.9-25.8,57.7-57.7,57.7
			s-57.7-25.8-57.7-57.7C498.25,580.81,524.05,555.01,555.95,555.01z M260.55,676.909c1.5-13.1,2.8-23.8,3.7-32.2
			c0.4-3.8,3.2-6.899,7-7.699c1.4-0.301,2.9-0.601,4.3-1c3.9-0.9,7.6,2.3,7.2,6.3c-1.3,11.399-2.5,23.399-3.1,35.899
			c-0.2,4.4-3.6,8-8,8.5c-0.4,0-0.8,0.101-1.3,0.101C264.65,687.409,259.85,682.609,260.55,676.909z M203.45,753.31
			c-1.5,12.3-3.1,25.399-4.9,39.5c-8.8,71.6-77.1,85.399-116,87.399c-4.6,0.2-8.7-3.1-9.3-7.699l-13.9-103.801
			c-0.7-4.899,2.8-9.399,7.7-10c26.9-3.399,74.1-9.199,126.4-15.3C199.25,742.709,204.15,747.609,203.45,753.31z M56.15,682.31
			c37.7-8,103.6-22.101,151.8-32.3c3.9-0.801,7.5,2.399,7,6.399c-1,8.601-2.2,18.601-3.5,30c-0.5,4.101-3.7,7.4-7.9,7.8
			c-58.9,6.801-113.5,13.5-143,17.2c-4.9,0.601-9.3-2.8-10-7.7l-1.5-11.6C48.55,687.609,51.55,683.31,56.15,682.31z"/>
	</g>
</g>
<g>
</g>
<g>
</g>
<g>
</g>
<g>
</g>
<g>
</g>
<g>
</g>
<g>
</g>
<g>
</g>
<g>
</g>
<g>
</g>
<g>
</g>
<g>
</g>
<g>
</g>
<g>
</g>
<g>
</g>
</svg>
